<svg width="900" height="220" xmlns="http://www.w3.org/2000/svg">
  <defs>
    <linearGradient id="bg" x1="0%" y1="0%" x2="100%" y2="100%">
      <stop offset="0%" style="stop-color:#0a0a1a"/>
      <stop offset="40%" style="stop-color:#0f172a"/>
      <stop offset="100%" style="stop-color:#0a0a1a"/>
    </linearGradient>
    <linearGradient id="accent" x1="0%" y1="0%" x2="100%" y2="0%">
      <stop offset="0%" style="stop-color:#3b82f6"/>
      <stop offset="100%" style="stop-color:#8b5cf6"/>
    </linearGradient>
  </defs>
  <rect width="900" height="220" fill="url(#bg)"/>
  <g opacity="0.03" stroke="white" stroke-width="1">
    <line x1="0" y1="0" x2="900" y2="220"/><line x1="100" y1="0" x2="900" y2="160"/>
    <line x1="0" y1="60" x2="900" y2="220"/><line x1="200" y1="0" x2="900" y2="110"/>
    <line x1="900" y1="0" x2="0" y2="220"/><line x1="800" y1="0" x2="0" y2="160"/>
  </g>
  <circle cx="750" cy="60" r="80" fill="#3b82f6" opacity="0.04"/>
  <circle cx="800" cy="160" r="60" fill="#8b5cf6" opacity="0.04"/>
  <circle cx="150" cy="180" r="70" fill="#10b981" opacity="0.03"/>
  <rect x="0" y="216" width="900" height="4" fill="url(#accent)"/>
  <text x="50" y="65" font-family="monospace" font-size="20" fill="#10b981">$_</text>
  <text x="50" y="105" font-family="Segoe UI, sans-serif" font-size="42" font-weight="700" fill="white" letter-spacing="-1">Gabriel Tavares</text>
  <text x="50" y="140" font-family="Segoe UI, sans-serif" font-size="20" fill="#94a3b8" font-weight="300">Full-Stack Developer</text>
  <text x="275" y="140" font-family="Segoe UI, sans-serif" font-size="20" fill="#475569">/</text>
  <text x="293" y="140" font-family="Segoe UI, sans-serif" font-size="20" fill="#94a3b8" font-weight="300">Security Researcher</text>
  <text x="50" y="180" font-family="monospace" font-size="13" fill="#475569">I build custom AI systems and break them before anyone else does.</text>
  <rect x="700" y="55" width="170" height="30" rx="6" fill="#1e293b" stroke="#334155" stroke-width="1"/>
  <circle cx="720" cy="70" r="4" fill="#10b981"/>
  <text x="732" y="74" font-family="monospace" font-size="12" fill="#94a3b8">Founder @ AtendIA Tec</text>
  <rect x="700" y="95" width="170" height="30" rx="6" fill="#1e293b" stroke="#334155" stroke-width="1"/>
  <circle cx="720" cy="110" r="4" fill="#3b82f6"/>
  <text x="732" y="114" font-family="monospace" font-size="12" fill="#94a3b8">Voice AI + WhatsApp</text>
  <rect x="700" y="135" width="170" height="30" rx="6" fill="#1e293b" stroke="#334155" stroke-width="1"/>
  <circle cx="720" cy="150" r="4" fill="#ef4444"/>
  <text x="732" y="154" font-family="monospace" font-size="12" fill="#94a3b8">Pentest + AppSec</text>
</svg>
