<svg width="900" height="200" xmlns="http://www.w3.org/2000/svg">
  <defs>
    <linearGradient id="bgdark" x1="0%" y1="0%" x2="100%" y2="100%">
      <stop offset="0%" style="stop-color:#0f172a"/>
      <stop offset="100%" style="stop-color:#1a1a2e"/>
    </linearGradient>
  </defs>

  <rect width="900" height="200" rx="10" fill="url(#bgdark)"/>
  
  <!-- Title -->
  <text x="450" y="30" font-family="monospace" font-size="14" fill="#ef4444" text-anchor="middle">Security Research</text>
  <rect x="200" y="38" width="500" height="1" fill="#ef4444" opacity="0.3"/>

  <!-- Engagement 1 -->
  <rect x="30" y="55" width="410" height="120" rx="8" fill="#1e293b" stroke="#334155" stroke-width="1"/>
  
  <circle cx="55" cy="80" r="10" fill="#ef4444" opacity="0.2"/>
  <text x="55" y="84" font-family="monospace" font-size="12" fill="#ef4444" text-anchor="middle">!</text>
  
  <text x="75" y="84" font-family="Segoe UI, sans-serif" font-size="15" fill="white" font-weight="bold">ChatPro — WhatsApp SaaS</text>
  <text x="75" y="104" font-family="monospace" font-size="11" fill="#64748b">Type: Grey Box | GraphQL + Hasura + Firebase</text>
  
  <rect x="50" y="115" width="60" height="20" rx="4" fill="#7f1d1d"/>
  <text x="80" y="130" font-family="monospace" font-size="10" fill="#fca5a5" text-anchor="middle">CRITICAL</text>
  
  <text x="120" y="130" font-family="monospace" font-size="11" fill="#94a3b8">IDOR — Access any user data via GraphQL</text>
  
  <rect x="50" y="140" width="40" height="20" rx="4" fill="#713f12"/>
  <text x="70" y="155" font-family="monospace" font-size="10" fill="#fde68a" text-anchor="middle">HIGH</text>
  
  <text x="100" y="155" font-family="monospace" font-size="11" fill="#94a3b8">Broken Access Control + CORS misconfiguration</text>

  <!-- Engagement 2 -->
  <rect x="460" y="55" width="410" height="120" rx="8" fill="#1e293b" stroke="#334155" stroke-width="1"/>
  
  <circle cx="485" cy="80" r="10" fill="#ef4444" opacity="0.2"/>
  <text x="485" y="84" font-family="monospace" font-size="12" fill="#ef4444" text-anchor="middle">!</text>
  
  <text x="505" y="84" font-family="Segoe UI, sans-serif" font-size="15" fill="white" font-weight="bold">Mass Soccer — Registration</text>
  <text x="505" y="104" font-family="monospace" font-size="11" fill="#64748b">Type: Black Box | OWASP/PTES Methodology</text>
  
  <rect x="480" y="115" width="60" height="20" rx="4" fill="#7f1d1d"/>
  <text x="510" y="130" font-family="monospace" font-size="10" fill="#fca5a5" text-anchor="middle">CRITICAL</text>
  
  <text x="550" y="130" font-family="monospace" font-size="11" fill="#94a3b8">API enumeration — full data exposure</text>
  
  <rect x="480" y="140" width="40" height="20" rx="4" fill="#713f12"/>
  <text x="500" y="155" font-family="monospace" font-size="10" fill="#fde68a" text-anchor="middle">HIGH</text>
  
  <text x="530" y="155" font-family="monospace" font-size="11" fill="#94a3b8">Auth bypass + unprotected endpoints</text>

  <!-- Bottom methodology -->
  <text x="450" y="195" font-family="monospace" font-size="11" fill="#475569" text-anchor="middle">Methodology: OWASP Testing Guide v4.2 + PTES | Tools: Burp Suite, Nmap, Custom Scripts</text>
</svg>
