<svg width="900" height="170" xmlns="http://www.w3.org/2000/svg">
  <rect width="900" height="170" rx="10" fill="#0f172a"/>

  <text x="20" y="28" font-family="monospace" font-size="11" fill="#475569">LANGUAGES</text>
  <rect x="120" y="12" width="85" height="26" rx="5" fill="#3178C6" opacity="0.15" stroke="#3178C6" stroke-width="1"/>
  <text x="162" y="30" font-family="sans-serif" font-size="12" fill="#93c5fd" text-anchor="middle">TypeScript</text>
  <rect x="215" y="12" width="65" height="26" rx="5" fill="#3776AB" opacity="0.15" stroke="#3776AB" stroke-width="1"/>
  <text x="247" y="30" font-family="sans-serif" font-size="12" fill="#93c5fd" text-anchor="middle">Python</text>
  <rect x="290" y="12" width="40" height="26" rx="5" fill="#00ADD8" opacity="0.15" stroke="#00ADD8" stroke-width="1"/>
  <text x="310" y="30" font-family="sans-serif" font-size="12" fill="#67e8f9" text-anchor="middle">Go</text>
  <rect x="340" y="12" width="40" height="26" rx="5" fill="#F7DF1E" opacity="0.12" stroke="#F7DF1E" stroke-width="1"/>
  <text x="360" y="30" font-family="sans-serif" font-size="12" fill="#fde68a" text-anchor="middle">JS</text>

  <text x="20" y="63" font-family="monospace" font-size="11" fill="#475569">BACKEND</text>
  <rect x="120" y="47" width="60" height="26" rx="5" fill="#339933" opacity="0.15" stroke="#339933" stroke-width="1"/>
  <text x="150" y="65" font-family="sans-serif" font-size="12" fill="#86efac" text-anchor="middle">Node.js</text>
  <rect x="190" y="47" width="55" height="26" rx="5" fill="#fff" opacity="0.06" stroke="#64748b" stroke-width="1"/>
  <text x="217" y="65" font-family="sans-serif" font-size="12" fill="#e2e8f0" text-anchor="middle">Fastify</text>
  <rect x="255" y="47" width="78" height="26" rx="5" fill="#4169E1" opacity="0.15" stroke="#4169E1" stroke-width="1"/>
  <text x="294" y="65" font-family="sans-serif" font-size="12" fill="#93c5fd" text-anchor="middle">PostgreSQL</text>
  <rect x="343" y="47" width="50" height="26" rx="5" fill="#DC382D" opacity="0.15" stroke="#DC382D" stroke-width="1"/>
  <text x="368" y="65" font-family="sans-serif" font-size="12" fill="#fca5a5" text-anchor="middle">Redis</text>
  <rect x="403" y="47" width="58" height="26" rx="5" fill="#C5F74F" opacity="0.12" stroke="#C5F74F" stroke-width="1"/>
  <text x="432" y="65" font-family="sans-serif" font-size="12" fill="#d9f99d" text-anchor="middle">Drizzle</text>

  <text x="520" y="63" font-family="monospace" font-size="11" fill="#475569">FRONTEND</text>
  <rect x="620" y="47" width="55" height="26" rx="5" fill="#fff" opacity="0.06" stroke="#64748b" stroke-width="1"/>
  <text x="647" y="65" font-family="sans-serif" font-size="12" fill="#e2e8f0" text-anchor="middle">Next.js</text>
  <rect x="685" y="47" width="50" height="26" rx="5" fill="#61DAFB" opacity="0.15" stroke="#61DAFB" stroke-width="1"/>
  <text x="710" y="65" font-family="sans-serif" font-size="12" fill="#67e8f9" text-anchor="middle">React</text>
  <rect x="745" y="47" width="65" height="26" rx="5" fill="#06B6D4" opacity="0.15" stroke="#06B6D4" stroke-width="1"/>
  <text x="777" y="65" font-family="sans-serif" font-size="12" fill="#67e8f9" text-anchor="middle">Tailwind</text>

  <text x="20" y="98" font-family="monospace" font-size="11" fill="#475569">AI + VOICE</text>
  <rect x="120" y="82" width="58" height="26" rx="5" fill="#412991" opacity="0.2" stroke="#412991" stroke-width="1"/>
  <text x="149" y="100" font-family="sans-serif" font-size="12" fill="#c4b5fd" text-anchor="middle">OpenAI</text>
  <rect x="188" y="82" width="55" height="26" rx="5" fill="#fff" opacity="0.06" stroke="#64748b" stroke-width="1"/>
  <text x="215" y="100" font-family="sans-serif" font-size="12" fill="#e2e8f0" text-anchor="middle">Claude</text>
  <rect x="253" y="82" width="72" height="26" rx="5" fill="#13EF93" opacity="0.1" stroke="#13EF93" stroke-width="1"/>
  <text x="289" y="100" font-family="sans-serif" font-size="12" fill="#6ee7b7" text-anchor="middle">Deepgram</text>
  <rect x="335" y="82" width="75" height="26" rx="5" fill="#fff" opacity="0.06" stroke="#64748b" stroke-width="1"/>
  <text x="372" y="100" font-family="sans-serif" font-size="12" fill="#e2e8f0" text-anchor="middle">ElevenLabs</text>
  <rect x="420" y="82" width="62" height="26" rx="5" fill="#5046E5" opacity="0.15" stroke="#5046E5" stroke-width="1"/>
  <text x="451" y="100" font-family="sans-serif" font-size="12" fill="#c4b5fd" text-anchor="middle">Retell AI</text>

  <text x="540" y="98" font-family="monospace" font-size="11" fill="#475569">SECURITY</text>
  <rect x="640" y="82" width="72" height="26" rx="5" fill="#FF6633" opacity="0.15" stroke="#FF6633" stroke-width="1"/>
  <text x="676" y="100" font-family="sans-serif" font-size="12" fill="#fdba74" text-anchor="middle">Burp Suite</text>
  <rect x="722" y="82" width="58" height="26" rx="5" fill="#fff" opacity="0.06" stroke="#64748b" stroke-width="1"/>
  <text x="751" y="100" font-family="sans-serif" font-size="12" fill="#e2e8f0" text-anchor="middle">OWASP</text>
  <rect x="790" y="82" width="48" height="26" rx="5" fill="#4682B4" opacity="0.15" stroke="#4682B4" stroke-width="1"/>
  <text x="814" y="100" font-family="sans-serif" font-size="12" fill="#93c5fd" text-anchor="middle">Nmap</text>

  <text x="20" y="133" font-family="monospace" font-size="11" fill="#475569">INFRA</text>
  <rect x="120" y="117" width="57" height="26" rx="5" fill="#2496ED" opacity="0.15" stroke="#2496ED" stroke-width="1"/>
  <text x="148" y="135" font-family="sans-serif" font-size="12" fill="#93c5fd" text-anchor="middle">Docker</text>
  <rect x="187" y="117" width="48" height="26" rx="5" fill="#FCC624" opacity="0.1" stroke="#FCC624" stroke-width="1"/>
  <text x="211" y="135" font-family="sans-serif" font-size="12" fill="#fde68a" text-anchor="middle">Linux</text>
  <rect x="245" y="117" width="55" height="26" rx="5" fill="#24A1C1" opacity="0.15" stroke="#24A1C1" stroke-width="1"/>
  <text x="272" y="135" font-family="sans-serif" font-size="12" fill="#67e8f9" text-anchor="middle">Traefik</text>
  <rect x="310" y="117" width="62" height="26" rx="5" fill="#F47920" opacity="0.15" stroke="#F47920" stroke-width="1"/>
  <text x="341" y="135" font-family="sans-serif" font-size="12" fill="#fdba74" text-anchor="middle">Asterisk</text>

  <text x="430" y="133" font-family="monospace" font-size="11" fill="#475569">INTEGRATIONS</text>
  <rect x="560" y="117" width="72" height="26" rx="5" fill="#25D366" opacity="0.15" stroke="#25D366" stroke-width="1"/>
  <text x="596" y="135" font-family="sans-serif" font-size="12" fill="#86efac" text-anchor="middle">WhatsApp</text>
  <rect x="642" y="117" width="92" height="26" rx="5" fill="#FF6B00" opacity="0.15" stroke="#FF6B00" stroke-width="1"/>
  <text x="688" y="135" font-family="sans-serif" font-size="12" fill="#fdba74" text-anchor="middle">GoHighLevel</text>
  <rect x="744" y="117" width="48" height="26" rx="5" fill="#0866FF" opacity="0.15" stroke="#0866FF" stroke-width="1"/>
  <text x="768" y="135" font-family="sans-serif" font-size="12" fill="#93c5fd" text-anchor="middle">Meta</text>

  <rect x="0" y="160" width="900" height="10" rx="0" fill="#0f172a"/>
</svg>
